<svg width="700" height="300" viewBox="0 0 700 300" fill="none" xmlns="http://www.w3.org/2000/svg">
<path d="M190.106 123.474C185.713 115.666 179.278 109.203 171.489 104.777C163.652 100.288 154.545 98.0072 144.427 98.0072C134.422 98.0072 125.347 100.28 117.478 104.761C113.706 106.89 110.231 109.506 107.142 112.542C108.984 108.31 109.919 103.739 109.886 99.1234C109.886 91.3102 107.944 84.2746 104.12 78.2022C100.285 72.1495 94.8825 67.2492 88.4853 64.0223C81.9817 60.6899 74.5915 59.0015 66.4882 59.0015H25.2985C21.8079 58.9482 18.4377 60.2763 15.9219 62.6966C13.3591 65.1627 12.0011 68.487 12.0011 72.2989V189.719C11.9775 191.494 12.3207 193.255 13.0092 194.891C13.6978 196.528 14.7168 198.004 16.0024 199.229C18.5892 201.711 22.0521 203.071 25.637 203.012H69.7319C78.8789 203.012 87.1596 201.078 94.312 197.27C98.6369 194.996 102.562 192.032 105.933 188.494C108.89 191.616 112.252 194.326 115.93 196.553C123.405 201.09 132.113 203.403 141.82 203.403C150.64 203.403 158.655 201.179 165.638 196.791C167.346 195.721 168.978 194.535 170.522 193.241C170.013 196.505 168.972 199.663 167.44 202.589C165.022 207.062 161.939 210.35 157.97 212.663C153.952 215.003 149.371 216.203 144.721 216.132C139.14 216.132 134.244 215.145 130.122 213.203C126.18 211.389 122.713 208.685 119.992 205.305C117.985 202.734 115.102 200.99 111.893 200.405C110.214 200.075 108.485 200.09 106.812 200.447C105.139 200.804 103.555 201.498 102.157 202.484C100.752 203.384 99.5556 204.574 98.6485 205.974C97.7415 207.375 97.1449 208.953 96.8989 210.604C96.4073 213.92 97.3381 217.168 99.5624 219.976C104.705 226.64 111.388 231.957 119.037 235.47C126.693 239.024 135.244 240.817 144.399 240.817C154.557 240.817 163.74 238.375 171.671 233.564C179.486 228.838 185.905 222.12 190.271 214.097C194.735 206.01 197 196.847 197 186.858V150.729C196.891 140.563 194.57 131.4 190.106 123.474ZM38.5959 84.5567H66.5003C71.9562 84.5567 76.2436 85.8179 79.6002 88.417C82.5458 90.6896 83.9763 94.1993 83.9763 99.1314C83.9763 104.064 82.5176 107.73 79.4914 110.176C76.159 112.884 71.9038 114.206 66.4882 114.206H38.5959V84.5567ZM88.9648 168.54C87.1752 171.377 84.605 173.638 81.5626 175.051C78.2544 176.663 74.2772 177.469 69.7319 177.469H38.5959V139.765H69.744C74.3216 139.765 78.339 140.531 81.6875 142.038C84.6734 143.312 87.2362 145.408 89.0776 148.082C90.8184 150.637 91.6686 153.8 91.6686 157.753C91.6565 162.076 90.7499 165.699 88.9648 168.54ZM167.657 165.53C165.489 169.598 162.242 172.99 158.272 175.334C154.344 177.679 149.669 178.867 144.387 178.867C139.217 178.867 134.567 177.659 130.574 175.325C126.581 173.001 123.315 169.608 121.144 165.53C118.848 161.319 117.691 156.359 117.691 150.794C117.691 145.229 118.856 140.208 121.153 135.937C123.303 131.835 126.565 128.422 130.565 126.089C134.567 123.736 139.217 122.547 144.387 122.547C149.669 122.547 154.344 123.756 158.28 126.081C162.246 128.431 165.481 131.838 167.621 135.921C169.926 140.208 171.09 145.189 171.09 150.794C171.09 156.399 169.958 161.319 167.653 165.53H167.657Z" fill="#0F70B7"/>
<path fill-rule="evenodd" clip-rule="evenodd" d="M257.598 130.344C257.598 125.449 258.958 120.946 258.958 115.386C260.499 115.265 280.172 110.642 278.298 123.877C276.727 134.968 263.914 131.795 257.598 130.344ZM260.318 108.587C260.439 103.389 262.615 97.4965 263.038 92.2687C268.961 90.8786 277.996 88.0078 277.996 97.708C277.996 104.719 267.933 108.587 260.318 108.587ZM245.36 86.1645C247.566 95.6834 250.044 85.1069 246.72 105.202C245.058 115.114 244 118.589 244 129.649C244 144.094 292.924 145.151 292.924 122.85C292.924 116.323 287.273 110.43 281.38 109.947V108.587C290.537 106.471 296.883 92.2687 289.328 85.0162C281.108 77.1292 267.329 84.6536 263.703 85.4997C261.497 77.3105 249.439 84.019 245.36 86.1947V86.1645Z" fill="#2B2A29"/>
<path fill-rule="evenodd" clip-rule="evenodd" d="M432.229 114.02V118.099C432.229 132.423 442.413 140.521 456.706 140.521C459.275 140.521 461.299 139.675 463.505 139.162C462.961 145.81 460.272 152.065 471.664 152.065C475.744 152.065 475.714 150.766 478.463 150.04C470.607 135.173 492.848 108.58 477.799 108.58C470.788 108.58 467.585 111.935 464.895 112.66C465.832 116.165 469.64 116.83 469.64 119.459C469.64 134.538 446.522 139.403 446.522 118.099C446.522 106.042 453.382 93.1084 462.84 90.9025C464.835 98.3665 482.543 103.413 482.543 89.5427C482.543 78.4826 449.846 75.7327 436.097 100.18C434.375 103.232 432.259 109.578 432.259 113.989L432.229 114.02Z" fill="#2B2A29"/>
<path fill-rule="evenodd" clip-rule="evenodd" d="M497.443 82.7443C502.58 92.4445 500.888 85.7057 497.534 105.952C495.781 116.559 488.438 139.827 499.468 139.827C504.424 139.827 504.122 139.918 508.292 137.108C507.838 135.204 506.932 133.663 506.932 131.668C506.932 120.638 513.52 101.782 525.97 101.782C535.368 101.782 513.973 139.827 530.049 139.827C536.304 139.827 534.129 139.646 538.873 137.108C532.89 124.658 552.048 91.5682 534.793 91.5682C528.055 91.5682 524.036 91.7797 518.627 97.1586L510.316 106.526C511.948 99.5156 519.261 78 511.676 78C506.599 78 500.435 78.6044 497.413 82.7443H497.443Z" fill="#2B2A29"/>
<path fill-rule="evenodd" clip-rule="evenodd" d="M580.36 106.557C580.36 112.359 583.079 114.474 586.464 116.74C585.497 128.223 576.522 135.778 568.786 131.698C560.385 127.287 562.259 97.7025 585.104 97.7025C583.261 100.452 580.36 101.873 580.36 106.526V106.557ZM583.774 91.5983H576.31C563.467 91.5983 551.168 103.897 551.168 116.74C551.168 123.147 550.896 129.583 556.789 134.902C561.594 139.253 566.52 139.827 572.926 139.827C583.291 139.827 593.021 130.731 596.134 122.27C600.757 109.669 598.128 96.0405 588.609 97.0377L587.008 97.491C586.887 97.5212 586.675 97.6118 586.524 97.7025L586.071 94.7713C585.708 92.7466 585.98 91.5681 583.805 91.5681L583.774 91.5983Z" fill="#2B2A29"/>
<path fill-rule="evenodd" clip-rule="evenodd" d="M396.877 114.689C398.509 107.618 402.619 99.0663 411.14 99.0663C412.923 99.0663 415.22 102.058 415.22 103.146C415.22 111.335 404.976 114.508 396.877 114.689ZM400.262 139.831C409.206 139.831 422.019 137.021 422.019 128.952C422.019 124.752 422.472 122.153 413.86 122.153C410.294 137.414 396.182 136.779 396.182 120.129C435.255 120.129 431.538 91.6023 415.22 91.6023H410.476C378.958 91.6023 372.763 139.831 400.292 139.831H400.262Z" fill="#2B2A29"/>
<path fill-rule="evenodd" clip-rule="evenodd" d="M316.708 114.692C318.823 105.596 323.628 97.4071 333.691 99.7339C338.919 110.643 324.565 114.511 316.708 114.692ZM320.093 139.834H324.837C331.545 139.834 341.82 135.059 341.82 128.955C341.82 124.755 342.273 122.156 333.661 122.156C330.065 137.628 315.983 136.51 315.983 120.131C327.103 120.131 346.564 116.354 346.564 104.508V101.094C346.564 86.8306 310.816 86.7097 303.865 112.063C300.058 125.903 305.739 139.804 320.062 139.804L320.093 139.834Z" fill="#2B2A29"/>
<path fill-rule="evenodd" clip-rule="evenodd" d="M607.531 106.559C607.531 122.122 631.978 118.375 631.978 126.927C631.978 133.031 612.97 134.451 610.22 124.207C603.209 124.781 602.091 139.83 619.044 139.83C629.318 139.83 645.546 138.621 645.546 124.872C645.546 117.861 640.681 115.323 635.543 113.117C628.019 109.884 621.069 109.581 621.069 105.169C621.069 101.241 626.901 99.3674 630.587 99.0652C633.7 104.958 635.362 106.529 641.466 106.529C650.683 106.529 652.466 91.571 635.362 91.571C628.17 91.571 620.706 91.2084 614.662 95.3484C612.728 96.678 611.429 97.8263 610.069 99.6092C609.132 100.848 607.47 104.746 607.47 106.529L607.531 106.559Z" fill="#2B2A29"/>
<path fill-rule="evenodd" clip-rule="evenodd" d="M665.309 88.1897C665.611 91.7555 666.669 92.511 666.669 97.0136C662.71 97.0136 661.924 96.3487 658.51 96.3487C658.298 98.8569 657.845 98.2827 657.845 101.788C657.845 104.991 662.801 105.717 665.309 104.508C664.674 112.153 655.971 132.128 662.347 138.05C664.674 140.196 666.034 139.833 669.388 139.833C672.773 139.833 675.432 137.174 677.547 135.754C673.468 128.018 672.803 127.625 675.795 114.299C679.27 98.736 678.182 103.813 687.731 103.813C688.335 101.154 689.635 99.008 687.882 96.8927C685.978 94.5659 683.833 95.5933 680.932 95.6537C681.899 91.4533 685.374 82.2971 674.707 83.9591C670.174 84.6541 668.24 86.2255 665.309 88.1897Z" fill="#2B2A29"/>
<path fill-rule="evenodd" clip-rule="evenodd" d="M358.164 82.0795C360.31 90.1479 363.12 80.0246 360.008 98.881C359.494 101.933 358.799 106.164 358.255 109.367C357.137 116.045 350.791 139.857 361.549 139.857C366.565 139.857 366.082 139.767 371.068 137.138C366.051 127.649 371.037 110.394 372.82 101.51C373.938 95.9498 379.891 78 372.427 78C361.065 78 363.936 80.5384 358.164 82.0795Z" fill="#2B2A29"/>
<path d="M261.385 220.273L255.771 199.056H251.757V220.273H244V168.897H256.133C259.845 168.897 262.773 170.019 264.976 172.231C267.18 174.444 268.266 177.414 268.266 181.142V186.78C268.266 189.114 267.813 191.205 266.878 193.024C265.942 194.843 264.644 196.267 262.924 197.267L269.443 220.242H261.415L261.385 220.273ZM251.727 191.721H255.741C257.25 191.721 258.427 191.296 259.242 190.478C260.057 189.66 260.479 188.477 260.479 186.962V181.021C260.479 179.506 260.057 178.324 259.242 177.505C258.427 176.687 257.25 176.263 255.741 176.263H251.727V191.751V191.721ZM287.522 221C283.961 221 281.063 219.879 278.83 217.666C276.596 215.453 275.479 212.544 275.479 208.967V168.897H283.236V208.967C283.236 210.422 283.629 211.574 284.443 212.422C285.258 213.241 286.285 213.665 287.552 213.665C288.82 213.665 289.846 213.241 290.661 212.422C291.476 211.604 291.868 210.452 291.868 208.967V168.897H299.474V208.967C299.474 212.544 298.387 215.423 296.184 217.666C293.981 219.879 291.114 221 287.552 221H287.522ZM319.092 221C315.5 221 312.573 219.879 310.309 217.636C308.076 215.393 306.959 212.453 306.959 208.816V180.354C306.959 176.748 308.076 173.807 310.309 171.534C312.543 169.291 315.47 168.17 319.092 168.17C322.684 168.17 325.611 169.291 327.845 171.534C330.078 173.777 331.195 176.717 331.195 180.354V186.386H323.589V180.354C323.589 178.9 323.166 177.717 322.352 176.838C321.537 175.959 320.45 175.505 319.122 175.505C317.794 175.505 316.738 175.959 315.893 176.838C315.078 177.717 314.655 178.9 314.655 180.354V208.816C314.655 210.27 315.078 211.452 315.893 212.331C316.708 213.21 317.794 213.665 319.122 213.665C320.45 213.665 321.506 213.21 322.352 212.331C323.166 211.452 323.589 210.27 323.589 208.816V201.48H331.195V208.816C331.195 212.422 330.078 215.362 327.845 217.636C325.611 219.879 322.684 221 319.092 221ZM338.831 212.544H346.587V220.242H338.831V212.544ZM338.831 184.871H346.587V192.569H338.831V184.871ZM377.343 212.907H392.675V220.242H368.137V213.483L379.455 195.358C381.538 192.024 382.987 189.326 383.771 187.235C384.556 185.143 384.948 183.113 384.948 181.112C384.948 179.294 384.556 177.93 383.741 176.96C382.926 176.02 381.779 175.535 380.27 175.535C378.761 175.535 377.614 176.02 376.799 176.96C375.984 177.899 375.592 179.294 375.592 181.112V184.113H368.137V181.688C368.137 177.475 369.224 174.171 371.397 171.777C373.57 169.382 376.558 168.17 380.361 168.17C384.224 168.17 387.242 169.291 389.415 171.534C391.618 173.777 392.705 176.899 392.705 180.87C392.705 183.658 392.222 186.386 391.196 189.053C390.2 191.721 388.419 195.146 385.824 199.298L377.343 212.877V212.907ZM410.965 220.97C407.253 220.97 404.265 219.818 401.971 217.545C399.677 215.272 398.53 212.271 398.53 208.543V180.506C398.53 176.778 399.677 173.777 401.971 171.504C404.265 169.231 407.253 168.079 410.965 168.079C414.677 168.079 417.665 169.2 419.959 171.504C422.253 173.777 423.4 176.778 423.4 180.506V208.543C423.4 212.271 422.253 215.272 419.959 217.545C417.665 219.818 414.677 220.97 410.965 220.97ZM410.965 213.635C412.414 213.635 413.561 213.18 414.406 212.301C415.221 211.422 415.643 210.179 415.643 208.573V180.536C415.643 178.93 415.221 177.687 414.406 176.778C413.591 175.899 412.444 175.444 410.965 175.444C409.516 175.444 408.369 175.899 407.524 176.778C406.709 177.657 406.287 178.9 406.287 180.536V208.573C406.287 210.179 406.709 211.422 407.524 212.301C408.339 213.18 409.486 213.635 410.965 213.635ZM442.686 220.97C438.974 220.97 435.986 219.818 433.692 217.545C431.398 215.272 430.251 212.301 430.251 208.634V180.445C430.251 176.778 431.368 173.807 433.601 171.534C435.835 169.261 438.792 168.109 442.444 168.109C446.096 168.109 449.024 169.231 451.257 171.534C453.461 173.807 454.577 176.778 454.577 180.445V182.143H447.123V180.082C447.123 178.657 446.7 177.536 445.885 176.717C445.07 175.899 443.923 175.475 442.535 175.475C441.177 175.475 440.06 175.899 439.245 176.717C438.43 177.536 438.008 178.687 438.008 180.082V191.812C438.642 190.781 439.607 189.932 440.905 189.205C442.203 188.508 443.742 188.144 445.553 188.144C448.481 188.144 450.775 189.084 452.465 190.963C454.155 192.842 455 195.388 455 198.631V208.603C455 212.271 453.853 215.241 451.589 217.514C449.326 219.788 446.368 220.94 442.716 220.94L442.686 220.97ZM442.686 213.635C444.044 213.635 445.161 213.21 445.976 212.392C446.791 211.574 447.213 210.422 447.213 209.028V199.844C447.213 198.268 446.851 197.116 446.127 196.358C445.402 195.6 444.346 195.206 442.988 195.206C441.418 195.206 440.211 195.661 439.336 196.57C438.46 197.48 438.008 198.722 438.008 200.359V209.028C438.008 210.452 438.43 211.574 439.245 212.392C440.06 213.21 441.207 213.635 442.686 213.635ZM473.592 220.97C469.88 220.97 466.892 219.818 464.598 217.545C462.304 215.272 461.157 212.271 461.157 208.543V180.506C461.157 176.778 462.304 173.777 464.598 171.504C466.892 169.231 469.88 168.079 473.592 168.079C477.304 168.079 480.292 169.2 482.586 171.504C484.88 173.777 486.027 176.778 486.027 180.506V208.543C486.027 212.271 484.88 215.272 482.586 217.545C480.292 219.818 477.304 220.97 473.592 220.97ZM473.592 213.635C475.041 213.635 476.187 213.18 477.033 212.301C477.847 211.422 478.27 210.179 478.27 208.573V180.536C478.27 178.93 477.847 177.687 477.033 176.778C476.218 175.899 475.071 175.444 473.592 175.444C472.143 175.444 470.996 175.899 470.151 176.778C469.336 177.657 468.914 178.9 468.914 180.536V208.573C468.914 210.179 469.336 211.422 470.151 212.301C470.966 213.18 472.113 213.635 473.592 213.635ZM503.774 168.139C507.486 168.139 510.474 169.261 512.768 171.565C515.061 173.838 516.208 176.808 516.208 180.476V208.664C516.208 212.331 515.092 215.302 512.858 217.575C510.625 219.848 507.667 221 504.015 221C500.363 221 497.435 219.848 495.202 217.575C492.999 215.302 491.882 212.331 491.882 208.664V206.967H499.337V209.028C499.337 210.392 499.759 211.513 500.604 212.362C501.45 213.21 502.566 213.635 503.924 213.635C505.283 213.635 506.399 213.21 507.214 212.392C508.029 211.574 508.452 210.422 508.452 209.028V197.298C507.818 198.328 506.852 199.177 505.554 199.904C504.256 200.601 502.717 200.965 500.906 200.965C497.979 200.965 495.685 200.026 493.995 198.146C492.305 196.267 491.49 193.721 491.49 190.478V180.506C491.49 176.838 492.606 173.868 494.9 171.595C497.164 169.322 500.122 168.17 503.774 168.17V168.139ZM503.774 175.475C502.415 175.475 501.299 175.899 500.484 176.717C499.669 177.536 499.246 178.687 499.246 180.082V189.266C499.246 190.842 499.608 191.993 500.333 192.751C501.057 193.509 502.114 193.873 503.472 193.873C505.041 193.873 506.248 193.418 507.124 192.509C507.999 191.599 508.452 190.357 508.452 188.72V180.051C508.452 178.627 508.029 177.505 507.214 176.687C506.399 175.869 505.252 175.444 503.774 175.444V175.475ZM535.796 220.97C531.993 220.97 529.005 219.848 526.832 217.636C524.659 215.423 523.573 212.362 523.573 208.512V206.967L531.028 206.239V207.937C531.028 211.756 532.567 213.665 535.645 213.665C537.094 213.665 538.241 213.241 539.056 212.422C539.871 211.604 540.263 210.331 540.263 208.694V196.813C540.263 195.358 539.901 194.236 539.177 193.479C538.452 192.721 537.456 192.327 536.189 192.327C534.77 192.327 533.623 192.781 532.718 193.691C531.812 194.6 531.36 195.843 531.36 197.389V198.268H523.905V168.928H546.058V176.263H531.36V189.023C531.933 187.993 532.899 187.114 534.257 186.386C535.585 185.659 537.094 185.295 538.754 185.295C541.621 185.295 543.885 186.235 545.545 188.114C547.205 189.993 548.02 192.509 548.02 195.631V208.543C548.02 212.392 546.933 215.453 544.76 217.666C542.587 219.879 539.599 221 535.796 221V220.97ZM565.012 168.139C568.724 168.139 571.712 169.261 574.006 171.565C576.3 173.838 577.447 176.808 577.447 180.476V208.664C577.447 212.331 576.33 215.302 574.097 217.575C571.863 219.848 568.906 221 565.254 221C561.602 221 558.674 219.848 556.441 217.575C554.237 215.302 553.121 212.331 553.121 208.664V206.967H560.575V209.028C560.575 210.392 560.998 211.513 561.843 212.362C562.688 213.21 563.805 213.635 565.163 213.635C566.521 213.635 567.638 213.21 568.453 212.392C569.268 211.574 569.69 210.422 569.69 209.028V197.298C569.056 198.328 568.091 199.177 566.793 199.904C565.495 200.601 563.956 200.965 562.145 200.965C559.217 200.965 556.923 200.026 555.233 198.146C553.543 196.267 552.698 193.721 552.698 190.478V180.506C552.698 176.838 553.815 173.868 556.109 171.595C558.372 169.322 561.33 168.17 564.982 168.17L565.012 168.139ZM565.012 175.475C563.654 175.475 562.537 175.899 561.722 176.717C560.907 177.536 560.485 178.687 560.485 180.082V189.266C560.485 190.842 560.847 191.993 561.571 192.751C562.296 193.509 563.352 193.873 564.71 193.873C566.28 193.873 567.487 193.418 568.362 192.509C569.238 191.599 569.69 190.357 569.69 188.72V180.051C569.69 178.627 569.268 177.505 568.453 176.687C567.638 175.869 566.491 175.444 565.012 175.444V175.475ZM592.991 212.907H608.323V220.242H583.785V213.483L595.103 195.358C597.186 192.024 598.634 189.326 599.419 187.235C600.204 185.143 600.596 183.113 600.596 181.112C600.596 179.294 600.204 177.93 599.389 176.96C598.604 176.02 597.427 175.535 595.918 175.535C594.409 175.535 593.262 176.02 592.447 176.96C591.632 177.899 591.24 179.294 591.24 181.112V184.113H583.785V181.688C583.785 177.475 584.872 174.171 587.045 171.777C589.218 169.382 592.206 168.17 596.009 168.17C599.872 168.17 602.89 169.291 605.063 171.534C607.266 173.777 608.353 176.899 608.353 180.87C608.353 183.658 607.87 186.386 606.844 189.053C605.848 191.721 604.067 195.146 601.472 199.298L592.991 212.877V212.907ZM621.059 179.96H612.277V174.535C615.114 174.353 617.468 173.717 619.339 172.686C621.21 171.655 622.569 170.382 623.414 168.867H628.816V220.242H621.059V179.96ZM643.937 179.96H635.154V174.535C637.991 174.353 640.346 173.717 642.217 172.686C644.088 171.655 645.446 170.382 646.291 168.867H651.694V220.242H643.937V179.96ZM678.586 193.539C680.427 194.418 681.845 195.722 682.811 197.419C683.777 199.147 684.26 201.177 684.26 203.572V208.331C684.26 212.241 683.143 215.332 680.91 217.575C678.676 219.818 675.507 220.94 671.403 220.94C667.298 220.94 664.129 219.818 661.895 217.575C659.662 215.332 658.545 212.241 658.545 208.331V203.572C658.545 201.177 659.028 199.116 659.994 197.419C660.96 195.691 662.378 194.418 664.219 193.539C662.559 192.6 661.292 191.296 660.386 189.629C659.481 187.932 659.028 185.931 659.028 183.658V180.294C659.028 176.535 660.115 173.565 662.288 171.413C664.461 169.261 667.479 168.2 671.403 168.2C675.296 168.2 678.344 169.261 680.487 171.413C682.66 173.565 683.747 176.535 683.747 180.294V183.658C683.747 185.962 683.294 187.962 682.389 189.629C681.483 191.327 680.216 192.63 678.556 193.539H678.586ZM666.815 184.083C666.815 187.993 668.354 189.963 671.433 189.963C674.511 189.963 676.05 187.993 676.05 184.083V180.112C676.05 178.596 675.658 177.445 674.873 176.657C674.089 175.869 672.942 175.475 671.433 175.475C669.924 175.475 668.777 175.869 667.992 176.657C667.207 177.445 666.815 178.596 666.815 180.112V184.083ZM676.533 203.178C676.533 201.177 676.111 199.692 675.266 198.722C674.421 197.783 673.123 197.298 671.433 197.298C669.712 197.298 668.445 197.783 667.6 198.722C666.755 199.662 666.332 201.147 666.332 203.178V208.543C666.332 211.968 668.052 213.665 671.463 213.665C674.873 213.665 676.564 211.968 676.564 208.543V203.178H676.533Z" fill="#434242"/>
</svg>
